# xmcd
#
# Track frame offsets: 
#        150
#        11366
#        34966
#        52669
#        80422
#        92725
#        108629
#        128283
#        141486
#        157465
#        178992
#        204986
#        229215
#
# Disc length: 3190 seconds
#
# Revision: 0
# Processed by: cddbd v1.5.2PL0 Copyright (c) Steve Scherf et al.
# Submitted via: ExactAudioCopy v1.3
#
DISCID=ad0c740d
DTITLE=Sunday Wilde - He Digs Me
DYEAR=2014
DGENRE=Blues
TTITLE0=He Digs Me
TTITLE1=Sunday's Midnight Blues
TTITLE2=Handle Me
TTITLE3=Show Me Mercy
TTITLE4=Nobody's Fault
TTITLE5=Destitution Blues
TTITLE6=Fall to Pieces
TTITLE7=I Can't Believe
TTITLE8=Gimmie One More
TTITLE9=Black Mountain Blues
TTITLE10=Sit Around Waiting
TTITLE11=Crying Shame
TTITLE12=Walk With Me
EXTD=
EXTT0=
EXTT1=
EXTT2=
EXTT3=
EXTT4=
EXTT5=
EXTT6=
EXTT7=
EXTT8=
EXTT9=
EXTT10=
EXTT11=
EXTT12=
PLAYORDER=
